<svg width="78" height="24" viewBox="0 0 78 24" fill="none" xmlns="http://www.w3.org/2000/svg">
<g clip-path="url(#clip0_0_6021)">
<path d="M19.6704 15.8198L18.6678 15.3798C18.4673 15.2998 18.2468 15.3798 18.1665 15.5798C17.0437 18.5598 14.9984 21.1798 11.2288 21.1798C6.1758 21.1798 3.70948 16.0998 3.70948 11.0798C3.70948 7.01981 5.67452 3.6398 9.58454 3.6398C12.7126 3.6398 14.437 5.6598 15.6401 8.57981C15.7604 8.83981 15.9408 8.9598 16.2015 8.9598H17.1038C17.3444 8.9598 17.5049 8.7798 17.5049 8.5598L17.4447 2.6998C17.4447 2.4998 17.3244 2.3798 17.1239 2.3798H16.5023C15.9408 2.3798 15.9408 2.6998 15.2992 2.6998C14.5974 2.6998 12.492 1.7998 9.6848 1.7998C3.62927 1.7998 0.0200195 7.3598 0.0200195 12.8198C0.0200195 18.7798 3.84984 23.9998 10.527 23.9998C15.6802 23.9998 18.728 20.4598 19.8308 16.3198C19.891 16.1398 19.8308 15.9198 19.6704 15.8198Z" fill="black"/>
<path d="M28.2724 22.0202C26.7485 21.7802 26.187 21.2402 26.187 19.6602L26.2071 1.62023C26.2071 1.42023 26.0868 1.28023 25.8462 1.24023H25.3449C25.1043 1.24023 24.9639 1.30023 24.7834 1.48023C23.5804 2.56023 22.6981 3.18023 20.8133 3.96023C20.6127 4.04023 20.5125 4.20023 20.5125 4.42023V5.00023C20.5125 5.24023 20.6328 5.34023 20.8935 5.40023C21.896 5.58023 22.6179 6.24023 22.6179 7.32023L22.6379 19.6402C22.6379 21.2202 22.0163 21.7802 20.5125 22.0002C20.2518 22.0202 20.1315 22.2002 20.1516 22.4402L20.2117 23.0602C20.2318 23.2602 20.3922 23.4202 20.6127 23.4202H28.112C28.3526 23.4202 28.493 23.2802 28.513 23.0602L28.5732 22.4402C28.6534 22.2202 28.5331 22.0402 28.2724 22.0202Z" fill="black"/>
<path d="M41.8473 19.2402L41.4463 18.9402C41.2057 18.8002 40.9851 18.8802 40.8247 19.0602C39.9826 20.0802 38.6592 20.7602 37.3358 20.7802C35.0499 20.8402 33.5661 19.5602 32.9445 17.6202L40.5039 14.7802C40.6844 14.7202 40.8047 14.5802 40.8047 14.3402V13.9402C40.8047 13.7602 40.7846 13.5802 40.7445 13.4802C40.2833 11.6202 38.8998 9.68018 36.0324 9.68018C32.1625 9.68018 29.4556 12.8002 29.4556 16.8202C29.4556 20.5802 32.1425 23.8802 36.1327 23.8602C39.2607 23.8402 41.1856 21.7002 41.9877 19.8002C42.0679 19.6202 42.0278 19.3802 41.8473 19.2402ZM35.2504 11.4202C36.7743 11.4202 37.5363 12.6802 37.2756 14.1402L32.764 16.1802C32.0823 13.7602 32.9846 11.4202 35.2504 11.4202Z" fill="black"/>
<path d="M52.8955 10.2C51.3115 10.2 49.0858 12.04 47.7423 14.46C48.2436 12.3 48.5644 11.74 49.3665 9.88C49.4467 9.68 49.3063 9.5 49.1058 9.5C48.9253 9.5 48.785 9.56 48.5444 9.74C47.0004 10.94 45.4364 11.2 43.5516 11.86C43.351 11.94 43.2508 12.1 43.2508 12.3V12.92C43.2508 13.16 43.3711 13.26 43.6318 13.32C44.6343 13.5 45.3361 14.16 45.3361 15.24L45.3562 19.64C45.3562 21.22 44.9151 21.78 43.3911 22C43.1305 22.02 43.0102 22.2 43.0302 22.44L43.0904 23.06C43.1104 23.26 43.2708 23.42 43.4914 23.42H50.9505C51.1912 23.42 51.3315 23.28 51.3516 23.06L51.4117 22.44C51.4318 22.2 51.3315 22.04 51.0508 22C49.5269 21.76 48.7449 21.32 48.7449 19.64V15.4C49.3865 13.88 50.2086 13.58 50.9305 13.58C51.5721 13.58 52.0133 14.02 52.2138 14.6C52.2739 14.78 52.5145 14.86 52.675 14.74L53.9983 13.74C54.4996 13.36 54.8205 12.8 54.8205 12.08C54.8806 10.9 54.0585 10.2 52.8955 10.2Z" fill="black"/>
<path d="M64.1644 22.02C62.6405 21.78 62.0791 21.24 62.0791 19.66L62.0991 9.74C62.0991 9.6 61.9788 9.5 61.8385 9.5C61.658 9.5 61.5377 9.58 61.3773 9.74C59.9536 10.86 58.6503 11.7 56.7655 12.4C56.565 12.48 56.4647 12.64 56.4647 12.86V13.3C56.4647 13.54 56.585 13.64 56.8457 13.7C57.8482 13.88 58.6303 14.52 58.6303 15.6L58.6503 19.66C58.6503 21.24 57.9485 21.8 56.4246 22.02C56.1639 22.04 56.0436 22.22 56.0637 22.46L56.1238 23.08C56.1439 23.28 56.3043 23.44 56.5249 23.44H64.0241C64.2647 23.44 64.4051 23.3 64.4251 23.08L64.4853 22.46C64.5454 22.22 64.4251 22.04 64.1644 22.02Z" fill="black"/>
<path d="M77.8194 19.3202L77.4184 19.0202C77.1777 18.8802 76.9572 18.9602 76.7968 19.1402C75.9546 20.1602 74.7515 20.7202 73.4281 20.7202C70.3001 20.7202 68.5356 18.2602 68.5356 14.9202C68.5356 13.0202 69.4981 11.5402 71.0821 11.5402C72.7464 11.5402 73.368 12.8602 73.8292 14.4602C73.8893 14.6602 74.0297 14.7602 74.2101 14.7602H74.5109C74.7515 14.7602 74.9119 14.6802 75.0723 14.5602L76.0749 13.7802C77.0775 13.0002 76.8369 11.6802 75.8744 10.9002C74.9921 10.1202 73.6487 9.7002 72.2451 9.7002C68.295 9.7002 65.3474 12.5602 65.3474 16.8202C65.3474 20.7002 68.0343 23.8802 72.1047 23.8802C75.2328 23.8802 77.1577 21.8002 77.9598 19.9202C78.0199 19.7002 77.9798 19.4802 77.8194 19.3202Z" fill="black"/>
<path d="M56.545 4.2L58.4097 4.94C58.8108 5.1 59.1316 5.42 59.292 5.82L60.0339 7.68C60.1342 7.92 60.475 7.92 60.5753 7.68L61.3172 5.82C61.4776 5.42 61.7984 5.1 62.1995 4.94L64.0642 4.2C64.3049 4.1 64.3049 3.76 64.0642 3.66L62.1995 2.92C61.7984 2.76 61.4776 2.44 61.3172 2.04L60.5753 0.18C60.475 -0.06 60.1342 -0.06 60.0339 0.18L59.292 2.04C59.1316 2.44 58.8108 2.76 58.4097 2.92L56.545 3.66C56.3043 3.76 56.3043 4.1 56.545 4.2Z" fill="black"/>
</g>
<defs>
<clipPath id="clip0_0_6021">
<rect width="78" height="24" fill="white"/>
</clipPath>
</defs>
</svg>
